 <!DOCTYPE svg PUBLIC "-//W3C//DTD SVG 1.1//EN" "http://www.w3.org/Graphics/SVG/1.1/DTD/svg11.dtd">
<svg xmlns="http://www.w3.org/2000/svg" width="865.76" height="682.89" viewBox="0 0 865.76 682.89">
<defs>
<style xmlns="http://www.w3.org/1999/xhtml">*, ::after, ::before { box-sizing: border-box; }
img, svg { vertical-align: middle; }
</style>
<style xmlns="http://www.w3.org/1999/xhtml">*, body, html { -webkit-font-smoothing: antialiased; }
img, svg { max-width: 100%; }
</style>
</defs>
<path d="M811.83,276.33,674.74,638.17H171.53a40.07,40.07,0,0,1-39.17-31.61L51.8,234.12a44.07,44.07,0,0,1,27.58-50.58L339.72,85.78l9.19-3.45,10.5-4L482.76,32.06l3.93-1.47L514.84,20a41.33,41.33,0,0,1,40.48,6.54l72.47,58.51,8.13,6.56.37.3,21,17L797,221.7A48.24,48.24,0,0,1,811.83,276.33Z" fill="#0071f2" data-primary="true"/>
<path d="M811.83,276.33,674.74,638.17H171.53a40.07,40.07,0,0,1-39.17-31.61L51.8,234.12a44.07,44.07,0,0,1,27.58-50.58L339.72,85.78l9.19-3.45,10.5-4L482.76,32.06l3.93-1.47L514.84,20a41.33,41.33,0,0,1,40.48,6.54l72.47,58.51,8.13,6.56.37.3,21,17L797,221.7A48.24,48.24,0,0,1,811.83,276.33Z" fill="#fff" opacity="0.7"/>
<path d="M230.27,637.83l-122-70.44c-2.19-1.27-2.19-3.32,0-4.55L267.75,471a8.63,8.63,0,0,1,7.91,0l122,70.4c2.19,1.28,2.19,3.32,0,4.55L238.15,637.8A8.72,8.72,0,0,1,230.27,637.83Z" fill="#0071f2" data-primary="true"/>
<rect x="538.35" y="92.05" width="1.16" height="183.01" fill="#0071f2" data-primary="true"/>
<g opacity="0.2">
<rect x="538.35" y="92.05" width="1.16" height="183.01" fill="#fff"/>
</g>
<rect x="730.05" y="202.66" width="1.16" height="188.22" fill="#0071f2" data-primary="true"/>
<g opacity="0.5">
<rect x="730.05" y="202.66" width="1.16" height="188.22" fill="#fff"/>
</g>
<path d="M538.06,503.62l-.29-.17L345.22,391.18l.85-.5L539.22,277.57l.3.17,192,113.44-.85.5ZM347.51,391.17,538.06,502.28,729.19,391.17l-190-112.26Z" fill="#0071f2" data-primary="true"/>
<g opacity="0.5">
<path d="M538.06,503.62l-.29-.17L345.22,391.18l.85-.5L539.22,277.57l.3.17,192,113.44-.85.5ZM347.51,391.17,538.06,502.28,729.19,391.17l-190-112.26Z" fill="#fff"/>
</g>
<path d="M532.27,375.54l-5.57,86.92a3.5,3.5,0,0,0,3.2,3.71h0a3.5,3.5,0,0,0,3.78-3.24l6.12-86.23Z" fill="#2f2e41" data-secondary="true"/>
<path d="M439.49,415.44l.1,0a3.45,3.45,0,0,0,4-2.9l16.28-110h-6.37L436.66,411.5A3.46,3.46,0,0,0,439.49,415.44Z" fill="#2f2e41" data-secondary="true"/>
<path d="M532,235.23s-2.64-4.48-13.65,1.31l-53.22,31.62A42.55,42.55,0,0,0,449,285.05a33.11,33.11,0,0,0-3.59,21l1.16,12.16s0,5.79,5.79,6.37l64.86-50.38Z" fill="#0071f2" data-primary="true"/>
<path d="M532,235.23s-2.64-4.48-13.65,1.31l-53.22,31.62A42.55,42.55,0,0,0,449,285.05a33.11,33.11,0,0,0-3.59,21l1.16,12.16s0,5.79,5.79,6.37l64.86-50.38Z" opacity="0.2"/>
<path d="M613.35,326.89l11.58-82.24c4.06-24.32-9.26-32.43-9.26-32.43l-41.12-23.75c-22.59-12.16-31.28,15.06-31.28,15.06l-26.06,70.66Z" fill="#0071f2" data-primary="true"/>
<path d="M533.84,359,460.58,317a7.45,7.45,0,0,0-6.41-.52l-.08,0s-4.06-9.27,13.32-18l26.06-16.21s18.53-16.8,40-2.32l57.33,32.43-39.38,24.9S539.47,343.09,533.84,359Z" fill="#0071f2" data-primary="true"/>
<path d="M533.84,359,460.58,317a7.45,7.45,0,0,0-6.41-.52l-.08,0s-4.06-9.27,13.32-18l26.06-16.21s18.53-16.8,40-2.32l57.33,32.43-39.38,24.9S539.47,343.09,533.84,359Z" fill="#fff" opacity="0.2"/>
<path d="M460.58,317s-8.81-2.8-9.39,3.57c0,0-4.05,8.11,10.43,16.79l74.77,42.81s-2.52-1.87-2.45-4.1l-.49-13.3a16.42,16.42,0,0,1,.68-3.54Z" fill="#0071f2" data-primary="true"/>
<path d="M600.61,344.84l10.47,69.42a3.54,3.54,0,0,0,4.08,3h0a3.55,3.55,0,0,0,2.92-4l-10.52-74.19Z" fill="#2f2e41" data-secondary="true"/>
<path d="M538.06,315.4,345.21,203l.87-.5L538.64,91.09l.29.16,194.31,110-.87.51ZM347.52,203,538.06,314.06,730.92,201.22,538.65,92.42Z" fill="#0071f2" data-primary="true"/>
<g opacity="0.5">
<path d="M538.06,315.4,345.21,203l.87-.5L538.64,91.09l.29.16,194.31,110-.87.51ZM347.52,203,538.06,314.06,730.92,201.22,538.65,92.42Z" fill="#fff"/>
</g>
<rect x="251.67" y="296.92" width="189.09" height="1.16" transform="translate(48.22 643.28) rotate(-89.92)" fill="#0071f2" data-primary="true"/>
<g opacity="0.5">
<rect x="251.67" y="296.92" width="189.09" height="1.16" transform="translate(48.22 643.28) rotate(-89.92)" fill="#fff"/>
</g>
<path d="M604.09,345.42a50.54,50.54,0,0,0,15-14.68A30.2,30.2,0,0,0,624,315.37l.35-8.75c-.58-16.22-23.75,0-23.75,0l-49.23,30.69c-13.92,6.71-17.28,21.21-17.85,24.32a4.42,4.42,0,0,0-.08,1.09l.49,13.3a4.87,4.87,0,0,0,2.45,4.1c2.26,1.26,6.37,1.92,13.26-1.69Z" fill="#0071f2" data-primary="true"/>
<path d="M604.09,345.42a50.54,50.54,0,0,0,15-14.68A30.2,30.2,0,0,0,624,315.37l.35-8.75c-.58-16.22-23.75,0-23.75,0l-49.23,30.69c-13.92,6.71-17.28,21.21-17.85,24.32a4.42,4.42,0,0,0-.08,1.09l.49,13.3a4.87,4.87,0,0,0,2.45,4.1c2.26,1.26,6.37,1.92,13.26-1.69Z" opacity="0.2"/>
<rect x="537.92" y="314.73" width="1.16" height="187.93" transform="translate(-1.88 2.49) rotate(-0.26)" fill="#0071f2" data-primary="true"/>
<g opacity="0.5">
<rect x="537.92" y="314.73" width="1.16" height="187.93" transform="translate(-1.88 2.49) rotate(-0.26)" fill="#fff"/>
</g>
<circle cx="346.08" cy="392.04" r="6.66" fill="#2f2e41" data-secondary="true"/>
<circle cx="538.93" cy="502.66" r="6.66" fill="#2f2e41" data-secondary="true"/>
<circle cx="730.63" cy="390.89" r="6.66" fill="#2f2e41" data-secondary="true"/>
<circle cx="346.08" cy="202.66" r="6.66" fill="#2f2e41" data-secondary="true"/>
<circle cx="538.35" cy="313.28" r="6.66" fill="#2f2e41" data-secondary="true"/>
<circle cx="730.63" cy="202.66" r="6.66" fill="#2f2e41" data-secondary="true"/>
<circle cx="538.93" cy="92.05" r="6.66" fill="#2f2e41" data-secondary="true"/>
<path d="M170.61,630.59c13.65,8,13.65,20.9,0,28.81s-35.76,8-49.41,0-13.64-20.88,0-28.81S157,622.64,170.61,630.59Z" fill="#0071f2" data-primary="true"/>
<path d="M170.62,630.61c13.64,8,13.63,20.9,0,28.81s-35.77,8-49.41,0-13.63-20.88,0-28.8S157,622.64,170.62,630.61Z" fill="#fff" opacity="0.7"/>
<polygon points="233.41 630.32 235.64 598.5 251.06 589.6 242.23 625.23 233.41 630.32" fill="#e1e1e2"/>
<polygon points="233.41 630.32 224.6 625.23 224.77 592.22 235.64 598.5 233.41 630.32" fill="#c2c4c6"/>
<polygon points="125.4 567.97 127.62 536.16 143.03 527.26 134.21 562.89 125.4 567.97" fill="#b16668"/>
<polygon points="125.4 567.97 116.58 562.89 116.76 529.88 127.62 536.16 125.4 567.97" fill="#9a4a4d"/>
<polygon points="382.35 544.35 380.12 515.09 364.7 523.99 373.52 549.44 382.35 544.35" fill="#e1e1e2"/>
<polygon points="373.52 549.44 364.7 544.35 353.84 517.71 364.7 523.99 373.52 549.44" fill="#c2c4c6"/>
<polygon points="233.41 597.21 383.77 510.42 383.77 520.59 233.41 607.4 233.41 597.21" fill="#e1e1e2"/>
<polygon points="109.98 536.13 233.41 607.4 233.41 597.21 109.98 525.96 109.98 536.13" fill="#c2c4c6"/>
<polygon points="233.41 597.21 383.77 510.42 260.35 439.15 109.98 525.96 233.41 597.21" fill="#c2c4c6"/>
<path d="M384,447.74v53.78a19.11,19.11,0,0,1-8.63,14.93l-2.48,1.44h-.13A19.22,19.22,0,0,1,362,519.74L253.3,577.53a19.3,19.3,0,0,1-8.52,14.33h-.09l-2.47,1.42a3.56,3.56,0,0,1-.67.35,3.9,3.9,0,0,1-.35.19h-.11a19.7,19.7,0,0,1-13.37.62,16.07,16.07,0,0,1-1.51-.56l-.23-.1a8.87,8.87,0,0,1-1-.53L112.77,528.53a19.08,19.08,0,0,1-8.61-14.93V397.11a19.15,19.15,0,0,1,8.63-14.94L246,305.23a19,19,0,0,1,17.23,0l7,4a22.94,22.94,0,0,1,9.93,14.86L287,381.76l88.34,51.05A19.09,19.09,0,0,1,384,447.74Z" fill="#3f4347"/>
<path d="M270.2,309.42l-7-4.07a19.09,19.09,0,0,0-17.23,0l-133.18,77c-.5.29-1,.67-.88.55a19.74,19.74,0,0,0-7.58,12.92c.64-4.4,4.22-6.07,8.52-3.52l7,4.05a19,19,0,0,0,17.24,0l133.17-77C275,316.62,275,312.16,270.2,309.42Z" fill="#2e3135"/>
<path d="M384,447.74v53.78a19.11,19.11,0,0,1-8.63,14.93l-2.48,1.44h-.13a18.21,18.21,0,0,1-10.08,1.91,16.8,16.8,0,0,1-7-2l-79.78-46.07a19.14,19.14,0,0,1-8.62-14.94V403.11a19,19,0,0,1,8.62-14.93L287,381.76l88.35,51.05A19.09,19.09,0,0,1,384,447.74Z" fill="#2e3135"/>
<path d="M287,381.76l-11.11,6.42c-4.73,2.74-4.73,7.21,0,9.94l79.79,46.07a19.11,19.11,0,0,1,8.62,14.94v53.79c0,5.47,3.89,7.7,8.62,5l2.48-1.44A19.1,19.1,0,0,0,384,501.52V447.73a19.07,19.07,0,0,0-8.61-14.92Z" fill="#3f4347"/>
<path d="M287,381.76l-11.11,6.42c-4.73,2.74-4.73,7.21,0,9.94l79.79,46.07a19.11,19.11,0,0,1,8.62,14.94v53.79c0,5.47,3.89,7.7,8.62,5l2.48-1.44A19.1,19.1,0,0,0,384,501.52V447.73a19.07,19.07,0,0,0-8.61-14.92Z" opacity="0.2"/>
<path d="M364.29,459.13v53.79c0,5.47,3.88,7.7,8.61,5l2.49-1.44A19.13,19.13,0,0,0,384,501.52V447.73a17.69,17.69,0,0,0-2.53-8.49l-19.71,11.4A17.69,17.69,0,0,1,364.29,459.13Z" opacity="0.2"/>
<path d="M360.62,519.86a20.33,20.33,0,0,1-3.15,4.75,38,38,0,0,1-8.1,5.67c-30.32,17.51-55.4,32.05-85.7,49.54a9.51,9.51,0,0,1-8.63,0l-28-16.19-56.09-32.37c-4.77-2.74-8.63-9.09-8.63-14.29s3.86-11.57,8.63-14.32l31.83-18.37,24.26-14,29.64-17.15a19.17,19.17,0,0,1,17.24,0l79.79,46.09c4.74,2.74,8.61,4.86,8.61,11.19A31.6,31.6,0,0,1,360.62,519.86Z" fill="#3f4347"/>
<path d="M263.67,561.16l94.24-54.49c2.38-1.36,4.3-.26,4.3,2.49v8.73a9.51,9.51,0,0,1-4.3,7.46l-94.24,54.52c-2.38,1.38-4.32.25-4.32-2.49v-8.72A9.5,9.5,0,0,1,263.67,561.16Z" fill="#2e3135"/>
<path d="M255.6,422.71,171,471.64a19,19,0,0,0-8.63,14.93v5.79a19,19,0,0,0,8.61,14.93l79.79,46.06a19,19,0,0,0,17.24,0l84.64-48.92a19.08,19.08,0,0,0,8.63-14.94V483.7a19.06,19.06,0,0,0-8.63-14.93l-79.77-46.06A19,19,0,0,0,255.6,422.71Z" fill="#2e3135"/>
<path d="M259.36,529.7v25.77a17.62,17.62,0,0,1-8.62-2.07L171,507.29a19,19,0,0,1-8.63-14.93v-5.79a19.31,19.31,0,0,1,7.75-14.34c-3.87,2.77-3.57,6.82.88,9.4l79.79,46A17.57,17.57,0,0,0,259.36,529.7Z" fill="#3f4347"/>
<path d="M268,527.65l84.65-48.93c4.76-2.75,4.76-7.21,0-10l-79.78-46.06a19,19,0,0,0-17.24,0L171,471.64c-4.76,2.74-4.76,7.2,0,9.94l79.79,46.07A19,19,0,0,0,268,527.65Z" fill="#455a64"/>
<path d="M210.79,377.61c-5.52-.56-10.08,5.81-19.29,10.31-17.14,8.38-24.86,16-32.83,25.32s-11,7.73-13.45,13.52,4.3,8.29,7.58,16.51c5.43,13.87,12.13,23.18,19.16,29,12.39,10.2,10.49,17.29,16.13,17.23,6.07-.07,5.57-5.21,15-8.88,22.3-8.67,31.47-16.39,41.76-31.64,4-6,9.1-5.46,10.15-11.2.48-2.88-3.7-4.43-7.48-13.47-6.27-15-16.3-29.07-26.06-36.38C217.14,384.69,216.41,378.23,210.79,377.61Z" fill="#0071f2" data-primary="true"/>
<path d="M210.79,377.61c-5.52-.56-10.08,5.81-19.29,10.31-17.14,8.38-24.86,16-32.83,25.32s-11,7.73-13.45,13.52,4.3,8.29,7.58,16.51c5.43,13.87,12.13,23.18,19.16,29,12.39,10.2,10.49,17.29,16.13,17.23,6.07-.07,5.57-5.21,15-8.88,22.3-8.67,31.47-16.39,41.76-31.64,4-6,9.1-5.46,10.15-11.2.48-2.88-3.7-4.43-7.48-13.47-6.27-15-16.3-29.07-26.06-36.38C217.14,384.69,216.41,378.23,210.79,377.61Z" opacity="0.3" style="isolation:isolate"/>
<path d="M151.28,436.42c4.72,6.68,4.1,13.35,13.8,25.63,9.31,11.8,16,15.16,18.83,20.39,2.32,4.4,5.49,6.46,6.24,1.32s-3.24-19.86-12.67-32.46c-10.79-14.49-17.69-20-22.41-22.16C147.81,425.8,147.58,431.17,151.28,436.42Z" opacity="0.2" style="isolation:isolate"/>
<path d="M203.4,474.91c-6.15,2.12-6.42,7.58-9.52,11.79a24.53,24.53,0,0,1,9.1-6.06,105,105,0,0,0,23.65-12.05C218.75,472.67,207.86,473.36,203.4,474.91Zm38.54-28.27c-3.82,3.5-3.44,9.76-8,15.79a86,86,0,0,0,10.88-13.49c3.69-5.44,8.28-5.5,9.78-9.85C251.21,443.42,246.54,442.39,241.94,446.64Z" opacity="0.2" style="isolation:isolate"/>
<path d="M203.12,390.89a63.87,63.87,0,0,0-35.31,19.33,10.44,10.44,0,0,0-2.4,7.58,10.21,10.21,0,0,0,5.29,8.31c3,1.74,7.58,1.76,10.84,1.33,6.79-.86,10.81-2.64,19.61-2.77a20.08,20.08,0,0,1,9.26,2.33c4.33,2.41,7.58,5.14,11.37,7.17,5.23,2.81,14.52,1.52,17.75-1.69,3.44-3.46,4.22-8.63,1.14-15.17C233.82,403,221,388.92,203.12,390.89Z" fill="#0071f2" data-primary="true"/>
<path d="M286.47,431.47s23.88,12.13,37.13,19.36,27.92,12.5,32.84,23.29c3.86,8.51,2.35,18.51-4.1,35.77S330,558.6,328.09,565.15L306,560.93l.6-4.55.26-.82,6.61-50.68-58.9-59.34Z" fill="#f9b499"/>
<path d="M306.68,556.44l-.61,4.55,22.09,4.22c1.12-3.9,7.2-16.59,13.31-29.85h0s-2.67-24.63-4.55-32.93-3.47-10.19-11.29-16.44-48-32.84-48-32.84L264.9,456l48.63,49-6.67,50.61Z" fill="#f7a48b"/>
<path d="M296.46,572.15a9.26,9.26,0,0,0-1,2.93c-.09,1.77,3.92,7.67,5.49,9.81a14.22,14.22,0,0,1,2.88,10.17c-.24,5.71,2.28,11.2,6,15.93a39.27,39.27,0,0,0,19.46,12.84c9.42,2.93,12.75-1.79,12.75-1.79s2.93-4.54,1.19-6.41S296.46,572.15,296.46,572.15Z" fill="#2f2e41" data-secondary="true"/>
<path d="M307,554.49c-.29,0-.69,0-1.44.82-.29.35-2,4.55-3.44,6.79s-5.18,6.43-5.67,10c2.17,7,8.7,11.86,9.67,18.45s1.06,14.25,11.18,22.35,20.51,8.94,24.25,6.82,3.41-6.14-1.79-13.8c-5.51-8.11-9.2-25.77-9.2-25.77a56.92,56.92,0,0,1-.95-7.47,47.06,47.06,0,0,1,.71-7.4,5.45,5.45,0,0,0-.47-3.35,5.65,5.65,0,0,0-2.77-1.94,25.75,25.75,0,0,0-5.25-1.7,8.36,8.36,0,0,0-5.37.64c-1.16.62-2.13,1.62-3.36,2.13a4.8,4.8,0,0,1-4.91-1,4.14,4.14,0,0,1-1.34-4.55Z" fill="#0071f2" data-primary="true"/>
<path d="M307,554.49c-.29,0-.69,0-1.44.82-.29.35-2,4.55-3.44,6.79s-5.18,6.43-5.67,10c2.17,7,8.7,11.86,9.67,18.45s1.06,14.25,11.18,22.35,20.51,8.94,24.25,6.82,3.41-6.14-1.79-13.8c-5.51-8.11-9.2-25.77-9.2-25.77a56.92,56.92,0,0,1-.95-7.47,47.06,47.06,0,0,1,.71-7.4,5.45,5.45,0,0,0-.47-3.35,5.65,5.65,0,0,0-2.77-1.94,25.75,25.75,0,0,0-5.25-1.7,8.36,8.36,0,0,0-5.37.64c-1.16.62-2.13,1.62-3.36,2.13a4.8,4.8,0,0,1-4.91-1,4.14,4.14,0,0,1-1.34-4.55Z" opacity="0.4" style="isolation:isolate"/>
<path d="M311.39,606.46a16.11,16.11,0,0,1,14.71-7.9c10.75,0,14.46,5.55,16.09,8.78,1.94,3.83,3.95,10.78-.49,12.76-4.81,2.16-10.35,1.52-19.07-2.94S311.39,606.46,311.39,606.46Z" fill="#fafafa"/>
<path d="M313.44,574.06a1.1,1.1,0,0,0,1,0c1.67-.85,10.46-2.67,15.57,2.11.67-.53.53-1.52-.3-2.88-6-3.82-14.31-2.14-16.33-1.12a1,1,0,0,0-.44,1.36l0,.06A1.08,1.08,0,0,0,313.44,574.06Z" fill="#fafafa"/>
<path d="M331.07,582.43a3.31,3.31,0,0,0-.6-3c-5.9-3.21-13.65-1.63-15.57-.65a1,1,0,0,0-.46,1.36l0,.07a1.26,1.26,0,0,0,.5.47,1.22,1.22,0,0,0,1,0C317.58,579.87,325.92,578.18,331.07,582.43Z" fill="#fafafa"/>
<path d="M335.48,597a6,6,0,0,0-1.36-3.89c-6-3.63-14.1-2-16.07-1a1,1,0,0,0-.46,1.36l0,.06a1,1,0,0,0,.5.47,1.06,1.06,0,0,0,1,0C320.81,593.12,330.5,591.15,335.48,597Z" fill="#fafafa"/>
<path d="M316.52,587.36a1.06,1.06,0,0,0,1,0c1.66-.84,10.27-2.61,15.39,1.95a3.73,3.73,0,0,0-.88-3.18c-5.91-3.23-13.64-1.64-15.57-.67a1,1,0,0,0-.45,1.39l0,0A1.12,1.12,0,0,0,316.52,587.36Z" fill="#fafafa"/>
<path d="M254.57,445.6s62.77,40.86,69.86,46.46,8.67,10.61,11.24,23,12.66,73.59,14.64,81.15,5.88,18.57,5.88,18.57l-25.54,4.93-1.28-8.44a98,98,0,0,0-7.32-18.55c-6.17-12.59-11-19.87-16.89-31.29-6.38-12.34-6.3-22.86-6.76-28.8-.32-4.13-1.3-5.64-7.34-7.67s-8.59-2.9-16.31-5-38.36-9.3-53.06-23.46S204,471.15,203.15,460.22s0-14.6,0-14.6Z" fill="#f9b499"/>
<path d="M327.18,631.23a9.53,9.53,0,0,0,.36,3.23c.71,1.73,7.19,5.44,9.64,6.73a15,15,0,0,1,7.4,8.26c2.38,5.49,7.26,9.53,12.87,12.3a41.13,41.13,0,0,0,24.18,3.17c10.21-1.52,11.19-7.58,11.19-7.58s.68-5.61-1.82-6.57S327.18,631.23,327.18,631.23Z" fill="#2f2e41" data-secondary="true"/>
<path d="M329,609.87c-.29.12-.61.18-.91,1.35-.11.44.2,5.21-.14,8s-1.94,8.43-.75,12.05c5.23,5.6,13.64,7.2,17.54,13s7.44,13,20.71,15.94,23.42-.94,26-4.66.42-7.33-8-12.13c-8.9-5.12-20.39-20-20.4-20a59.81,59.81,0,0,1-4.31-6.6,49.4,49.4,0,0,1-2.7-7.29,5.76,5.76,0,0,0-2-2.94,6,6,0,0,0-3.5-.56,25.66,25.66,0,0,0-5.72.71,8.7,8.7,0,0,0-4.76,3,37.77,37.77,0,0,1-2.18,3.54,5,5,0,0,1-5.09,1.42,5.67,5.67,0,0,1-3.46-3.52Z" fill="#0071f2" data-primary="true"/>
<path d="M356.91,656.72a16.88,16.88,0,0,1,10.23-14.15c10.17-4.85,16.16-1.38,19.16.91,3.58,2.73,8.66,8.35,5.37,12.25-3.53,4.22-9.1,6.07-19.3,5.94S356.91,656.72,356.91,656.72Z" fill="#fafafa"/>
<path d="M344,625.35a1.16,1.16,0,0,0,.93-.46c1.18-1.51,8.64-7.27,15.63-5.12.38-.8-.2-1.67-1.61-2.56-7.38-.87-14.46,4.55-15.89,6.38a1.11,1.11,0,0,0,.26,1.52A1.3,1.3,0,0,0,344,625.35Z" fill="#fafafa"/>
<path d="M364.47,625.11a3.44,3.44,0,0,0-1.92-2.5c-7-.34-13.65,4.68-15,6.48a1.08,1.08,0,0,0,.24,1.51h0a1.19,1.19,0,0,0,.68.21,1.13,1.13,0,0,0,.93-.44C350.65,628.88,357.68,623.45,364.47,625.11Z" fill="#fafafa"/>
<path d="M375.22,636.83a6.43,6.43,0,0,0-3-3c-7.26-.68-14.16,4.55-15.57,6.43a1.07,1.07,0,0,0,.21,1.49l.05,0a1,1,0,0,0,.68.21,1.17,1.17,0,0,0,.92-.44C359.74,639.87,367.91,633.58,375.22,636.83Z" fill="#fafafa"/>
<path d="M353,636.4A1.15,1.15,0,0,0,354,636c1.17-1.52,8.46-7.14,15.37-5.19a3.88,3.88,0,0,0-2.29-2.59c-7-.33-13.64,4.68-15,6.47a1.1,1.1,0,0,0,.26,1.52A1.23,1.23,0,0,0,353,636.4Z" fill="#fafafa"/>
<path d="M207.24,275.8c-.61-11.55,21-22.05,42.56-8.61,7.86-.27,12.49,5.36,14.73,12.33,1.52,4.64.12,13.72-7.24,17.48-3,8.66-1.4,14-6.48,21.6a35.82,35.82,0,0,1-4.64,5.92,20,20,0,0,1-13,6.06,83.53,83.53,0,0,1-11.51.62,39.33,39.33,0,0,1-5.67-1.26,3.21,3.21,0,0,0-3.42,1.94,11.53,11.53,0,0,0-1.19,3.61,8.51,8.51,0,0,1-.59-8.68,10.34,10.34,0,0,0-8.47.1,10,10,0,0,1,6.58-5.38c-1.52-1.91-3.4-3.46-4.94-5.41a29.92,29.92,0,0,1-4-6.57A42.86,42.86,0,0,1,196.2,291C196.48,283.81,199,276.23,207.24,275.8Z" fill="#2f2e41" data-secondary="true"/>
<path d="M259,344c10.07,1.08,15.52,2.66,22.27,11.89s31.44,50.6,31.44,50.6L290.9,420.68l-25.43-38.34Z" fill="#f9b499"/>
<path d="M259,343.48c8,1,11.46,1.7,15.64,5s16.23,19,16.23,19c-6.54,9.45-16.16,13.65-25.78,15.89l-6.06-6.23Z" fill="#0071f2" data-primary="true"/>
<path d="M259,343.48c8,1,11.46,1.7,15.64,5s16.23,19,16.23,19c-6.54,9.45-16.16,13.65-25.78,15.89l-6.06-6.23Z" fill="#fff" opacity="0.3"/>
<path d="M317.17,445.6c-9.43-5-24.79-11.55-29-18.67-1.35-12.56-3-24.26-6-42.73-3-19.27-6.15-19.86-11.26-27.29-6.72-9.65-11.9-13.49-11.9-13.49s-7.87-.74-10.61-1.11c0,0-7.51-.89-9.39-.91-3.82,0-12.93,3.49-22.91,5.9-4.54,1.09-5.54-.32-8.44.79-4.55,1.73-11.39,4.43-11.39,4.43-3.68,3.77-4.71,15.83-.47,32.78,1.94,7.77,6.07,16.67,5.37,34.86-.11,3.16-1.35,21.41-1.35,35,0,24.55,8.63,37.28,23.39,50.77s40.94,21.23,40.94,21.23L279.33,521l-4.55-1.15s.32-10.61,8.63-25.15c13.64-23.82,33.62-31.44,56.3-36.39C339.68,458.42,327.69,451.2,317.17,445.6Z" fill="#0071f2" data-primary="true"/>
<path d="M319.08,384.45h0L317.23,383h0a2,2,0,0,0-1.85-.09l-20.48,6.91a7.07,7.07,0,0,0-4.09,4.28l-11.56,40.69a1.88,1.88,0,0,0,.38,2h0l1.91,1.52h0a2,2,0,0,0,1.87.12l20.48-6.91a7.07,7.07,0,0,0,4.09-4.3c2.28-8,9.28-32.68,11.56-40.69C319.84,385.52,319.63,384.79,319.08,384.45Z" fill="#2f2e41" data-secondary="true"/>
<path d="M319.08,384.45h0L317.23,383h0a2,2,0,0,0-1.85-.09l-20.48,6.91a7.07,7.07,0,0,0-4.09,4.28l-11.56,40.69a1.88,1.88,0,0,0,.38,2h0l1.91,1.52h0a2,2,0,0,0,1.87.12l20.48-6.91a7.07,7.07,0,0,0,4.09-4.3c2.28-8,9.28-32.68,11.56-40.69C319.84,385.52,319.63,384.79,319.08,384.45Z" opacity="0.2"/>
<path d="M294.76,392.51a7,7,0,0,0-2.06,3l-11.55,40.68a1.94,1.94,0,0,0,.3,2l-1.8-1.38h0a1.83,1.83,0,0,1-.38-2l11.55-40.69a7,7,0,0,1,1.9-2.9Z" opacity="0.2"/>
<path d="M281.15,436.25l11.55-40.68a7.16,7.16,0,0,1,4.09-4.29l20.5-6.91c1.74-.59,2.76.38,2.26,2.15-2.27,8-9.28,32.7-11.55,40.69a7.07,7.07,0,0,1-4.1,4.29l-20.48,6.92C281.66,439,280.65,438,281.15,436.25Z" fill="#2f2e41" data-secondary="true"/>
<path d="M293.2,404l2.17-7.58a1.36,1.36,0,0,1,.76-.8l3.54-1.18c.34-.11.52,0,.43.41l-2.17,7.58a1.31,1.31,0,0,1-.76.8l-3.54,1.18C293.31,404.44,293.11,404.26,293.2,404Z" opacity="0.2"/>
<path d="M295.64,398.09a3.34,3.34,0,0,1,2-2c.85-.29,1.35.14,1.12.95a3.39,3.39,0,0,1-2,2C295.91,399.33,295.41,398.91,295.64,398.09Z" fill="#2f2e41" data-secondary="true"/>
<path d="M294.55,401.94a3.28,3.28,0,0,1,1.94-2c.85-.29,1.35.13,1.12,1a3.3,3.3,0,0,1-1.95,2C294.87,403.17,294.37,402.74,294.55,401.94Z" fill="#2f2e41" data-secondary="true"/>
<path d="M316.75,409.49c1.95-2.68,1.78-3,.75-4.43a8.49,8.49,0,0,0-6.86-3.62,18,18,0,0,0-6.07.58c-1.24.62-.23,3.21,2.85,3.94,4.85,1.15,4.81,2.47,4.81,2.47a61,61,0,0,0-6.26-1.18,44.39,44.39,0,0,0-7.16,1c-2.06.29-2.49,2.94,1,3.89l-3.76.55c-2.64.39-3.55,1.79-1.51,3.44a3.81,3.81,0,0,0,2.36.93s-2.8,0-2.87.89c-.19,2.67,1.52,3.4,7.18,5.11,5.38,1.62,6.45,4.55,5.36,6.55,0,0,2.19-1.24,4.14-2.56,1.52-1,2.65-2.05,2-4.28,0,0,3,.09,3.31-1.8a9.93,9.93,0,0,0-.7-4.11,3.36,3.36,0,0,0,1.74-3.15,5.44,5.44,0,0,0-1.09-3.37Z" fill="#f9b499"/>
<path d="M299.86,412.14a17.78,17.78,0,0,1,3.42-.33,10.89,10.89,0,0,1,3.29,1.09,38.4,38.4,0,0,1,5.93,3.26,38.38,38.38,0,0,1-6.32-2.35,18.5,18.5,0,0,0-3-1.23C302.13,412.4,301,412.36,299.86,412.14Z" fill="#f7a48b"/>
<path d="M297,417.06a7.6,7.6,0,0,1,3.7-.08,21.39,21.39,0,0,1,3.5,1.15,35.58,35.58,0,0,1,6.4,3.52,72.18,72.18,0,0,1-6.78-2.59A19,19,0,0,0,297,417.06Z" fill="#f7a48b"/>
<path d="M215.43,340.8c.12-2.72-.26-19.09-.26-19.09,0,1-4.85,4.06-9.57-.95s-5.32-10.62-2.85-14.29c2.72-4.09,9.25-4.23,12.13,2,2,2.21,5.22-.65,3.37-6.84.15-4.41,6.21-9.53,2.42-16.78,12.13-9,26.38-9.19,34.37-3a74.19,74.19,0,0,1,4.34,23.92c.27,14.51-3.22,21.71-7.72,24.4-3,1.8-4.65,2.51-10.11,2.35,0,5-.41,8.32,1.73,9a45.78,45.78,0,0,0,5.06.89s5.66,8.61-8.5,10.22c-22.58,2.55-32.24-4.44-32.24-4.44l3.22-1.2C214.52,345.6,215.25,344.56,215.43,340.8Z" fill="#f9b499"/>
<path d="M241.62,332.52c-9.77-.45-20.42-3.3-22.84-7.58a8.75,8.75,0,0,0,4.3,6.94c5.72,2.95,18.54,4.11,18.54,4.11Z" fill="#f7a48b"/>
<path d="M222.31,422.56l-9.7-40.93s-6.36-21.61-16.44-28.81c-10.46,4-10.41,7.46-12.53,14.42-2.73,9-1.64,17.21,3.65,39,4.55,18.48,8.94,30,12.32,36.61,4.2,8.15,11.74,8.15,24.63,6.22s20.89-3.91,38.64-8.06c8.52-2,12.87-4.36,19.81-7.27a28,28,0,0,0,7.39-4.24,16,16,0,0,0,4.8-6.07,4.43,4.43,0,0,1,.63-1.27,10.47,10.47,0,0,1,1-1,8.74,8.74,0,0,0,1.84-1.95,14.91,14.91,0,0,0,1-2.65,8,8,0,0,1,.43-1.25,7.09,7.09,0,0,1,.74-1.13,10.41,10.41,0,0,0,1.89-3,1.82,1.82,0,0,0-.36-1.76s1.11-1.06,1.52-1.51a11,11,0,0,0,1.31-1.74,1,1,0,0,0,.2-.82.87.87,0,0,0-.33-.38c-2.12-1.69-4.69-.65-6.82.41-5.55,2.79-8.46,5.68-14.32,7.87-3.19,1.16-4,1.42-5.18,1.16-1.67-.83,3.74-7,3.76-11.66,0-2.33-2.37-4.95-3.94-2.13-3.32,5.91-6.54,7.68-9.1,11.12s-5.09,5.63-11,8.28C251.78,422.94,222.31,422.56,222.31,422.56Z" fill="#f9b499"/>
<path d="M222.31,422.56a71.05,71.05,0,0,0-14.58.24s3.36-3,14-2.56Z" fill="#f7a48b"/>
<path d="M301.93,409.78a44.34,44.34,0,0,1-3.45,3.12c-1.17,1-2.38,2-3.58,3-.59.48-1.17,1-1.79,1.52a18.73,18.73,0,0,1-1.93,1.31c-1.31.84-2.65,1.63-4,2.34l1.9-1.35,1.88-1.35c.62-.47,1.24-.91,1.83-1.39s1.17-1,1.78-1.52c1.19-1,2.42-1.94,3.66-2.85Z" fill="#f7a48b"/>
<path d="M299.86,415.19A18.79,18.79,0,0,1,297.6,418c-.84.86-1.7,1.66-2.59,2.47s-1.84,1.51-2.79,2.26a26.39,26.39,0,0,1-3,2c.91-.77,1.79-1.51,2.7-2.35l2.67-2.33,2.68-2.35A19.64,19.64,0,0,0,299.86,415.19Z" fill="#f7a48b"/>
<path d="M196.29,352.58c-7.36,2.95-11.35,6.06-14.1,12.82s-2.07,10-2.07,24.7c15,1.52,22.47,1,34.09-2.61l-1.53-7.26C210.68,369.63,204.8,358,196.29,352.58Z" fill="#0071f2" data-primary="true"/>
<path d="M196.29,352.58c-7.36,2.95-11.35,6.06-14.1,12.82s-2.07,10-2.07,24.7c15,1.52,22.47,1,34.09-2.61l-1.53-7.26C210.68,369.63,204.8,358,196.29,352.58Z" fill="#fff" opacity="0.3"/>
<path d="M217.23,275.61a8.23,8.23,0,0,0,1.34-8.05c2.24,3.33,7.09-2,7.91-4a8.23,8.23,0,0,0,.59-4.33,6.05,6.05,0,0,0-7-4.89,6.14,6.14,0,0,0-1.57.51,7.29,7.29,0,0,0-9-5.12,7,7,0,0,0-2.51,1.24,7.28,7.28,0,0,1,.88-3.66A3.43,3.43,0,0,1,211,245.5c-4.91-1.87-8.47,1.51-10.61,5.11a8.6,8.6,0,0,0-7.9,3.71,7.57,7.57,0,0,0,.17,8,5.61,5.61,0,0,0-1.43,11.08,7.71,7.71,0,0,0-2.14,9.78,7.6,7.6,0,0,1,5-6.17,4.21,4.21,0,0,0,1,5.43,8.18,8.18,0,0,0,5.71,1.52c3.66-.2,7.58-2.1,8.69-5.57A8.28,8.28,0,0,0,217.23,275.61Z" fill="#2f2e41" data-secondary="true"/>
<path d="M272.25,520.45c-11.8-1.88-39.69-13.64-49.14-20.09C233.51,509.82,251.42,520.45,272.25,520.45Z" opacity="0.2"/>
<path d="M253,463.25c27.29,3.75,50.26-.32,61.21-5.18C294.9,472.23,278.71,471.12,253,463.25Z" opacity="0.2"/>
<path d="M233.53,588.43V534.64a19.12,19.12,0,0,0-8.63-14.93l-88.4-51.05-6.76-57.5a22.91,22.91,0,0,0-10-14.84l-7-4.05c-4.73-2.75-8.61-.5-8.61,5v116.5a19.18,19.18,0,0,0,8.61,14.93L225,593.41C229.65,596.13,233.53,593.91,233.53,588.43Z" fill="#2e3135"/>
<path d="M233.53,588.43V534.64a19.12,19.12,0,0,0-8.63-14.93l-88.4-51.05-6.76-57.5a22.91,22.91,0,0,0-10-14.84l-7-4.05c-4.73-2.75-8.61-.5-8.61,5v116.5a19.18,19.18,0,0,0,8.61,14.93L225,593.41C229.65,596.13,233.53,593.91,233.53,588.43Z" opacity="0.2"/>
<path d="M253.25,523.23v54.36a19.27,19.27,0,0,1-8.52,14.33h-.09l-2.47,1.42a3.28,3.28,0,0,1-.67.35,2.89,2.89,0,0,1-.35.19h-.1a4.5,4.5,0,0,1-.7.25,19.91,19.91,0,0,1-12.67.37,13.13,13.13,0,0,1-1.52-.56c4.15,1.71,7.35-.63,7.37-5.58h0V534.64a19.15,19.15,0,0,0-8.61-14.93l-15.65-9.1-72.77-42,11.11-6.43a19.17,19.17,0,0,1,17.24,0l64.16,37,15.62,9A19.07,19.07,0,0,1,253.25,523.23Z" fill="#3f4347"/>
<path d="M253.25,523.23v54.36a19.27,19.27,0,0,1-8.52,14.33h-.09l-2.47,1.42a3.28,3.28,0,0,1-.67.35,2.89,2.89,0,0,1-.35.19h-.1a4.5,4.5,0,0,1-.7.25,19.91,19.91,0,0,1-12.67.37,13.13,13.13,0,0,1-1.52-.56c4.15,1.71,7.35-.63,7.37-5.58h0V534.64a19.15,19.15,0,0,0-8.61-14.93l-15.65-9.1-72.77-42,11.11-6.43a19.17,19.17,0,0,1,17.24,0l64.16,37,15.62,9A19.07,19.07,0,0,1,253.25,523.23Z" opacity="0.2"/>
<path d="M233.53,534.64v53.78h0c0,5-3.22,7.29-7.37,5.58a13.13,13.13,0,0,0,1.52.56,19.91,19.91,0,0,0,12.67-.37,4.5,4.5,0,0,0,.7-.25h.1a2.89,2.89,0,0,0,.35-.19,3.25,3.25,0,0,0,.67-.34l2.47-1.43h.09a19.27,19.27,0,0,0,8.52-14.33V523.23a17.65,17.65,0,0,0-2.53-8.48L231,526.15A17.57,17.57,0,0,1,233.53,534.64Z" opacity="0.2"/>
<path d="M125.68,645.35c-10.81-11.16-17.18-39.22-6.63-48.09h53.7c11,9.36,3.91,39.06-8.26,49.63-9,7.14-24.89,7.3-34.71,1.73A18.27,18.27,0,0,1,125.68,645.35Z" fill="#2f2e41" data-secondary="true"/>
<path d="M168.1,593.69c12.25,7.16,12.25,18.76,0,25.91s-32.13,7.16-44.38,0-12.25-18.75,0-25.91S155.85,586.54,168.1,593.69Z" fill="#2f2e41" data-secondary="true"/>
<path d="M168.1,593.69c12.25,7.16,12.25,18.76,0,25.91s-32.13,7.16-44.38,0-12.25-18.75,0-25.91S155.85,586.54,168.1,593.69Z" opacity="0.2"/>
<path d="M162.2,597.14c9,5.26,9,13.76,0,19s-23.59,5.25-32.58,0-9-13.76,0-19S153.19,591.89,162.2,597.14Z" fill="#2f2e41" data-secondary="true"/>
<path d="M129.62,606.17c10.94-6,30-5.9,38,5-9.26,12.19-34.1,12.17-43.36,0A15.21,15.21,0,0,1,129.62,606.17Z" fill="#fafafa"/>
<path d="M142.29,534.55c-4.11,4.47-15.55,5.69-20.28-6.35-3.54-12-16-29.42-7.87-31.72,0,0,.33-6.21,10.85-2C139.45,497.66,161.76,527.79,142.29,534.55Z" fill="#0071f2" data-primary="true"/>
<path d="M142.29,534.55c-4.11,4.47-15.55,5.69-20.28-6.35-3.54-12-16-29.42-7.87-31.72,0,0,.33-6.21,10.85-2C139.45,497.66,161.76,527.79,142.29,534.55Z" fill="#fff" opacity="0.45" style="isolation:isolate"/>
<path d="M146.84,550.49c-1.58-14.8-7.77-29-16.52-40.91-2.81-3.54-6.44-8.63-9.71-10.66,15.27,15.66,23.76,36.67,26.18,58.22C147.86,558.11,146.87,551.3,146.84,550.49Z" fill="#0071f2" data-primary="true"/>
<path d="M146.84,550.49c-1.58-14.8-7.77-29-16.52-40.91-2.81-3.54-6.44-8.63-9.71-10.66,15.27,15.66,23.76,36.67,26.18,58.22C147.86,558.11,146.87,551.3,146.84,550.49Z" opacity="0.3" style="isolation:isolate"/>
<path d="M150.36,531.43c-28.52,5.19-8-41.86,5.14-37C173.69,485.81,174.07,538.28,150.36,531.43Z" fill="#0071f2" data-primary="true"/>
<path d="M150.36,531.43c-28.52,5.19-8-41.86,5.14-37C173.69,485.81,174.07,538.28,150.36,531.43Z" fill="#fff" opacity="0.25" style="isolation:isolate"/>
<path d="M155.91,501.5c-13.23,34.64-12.43,72.61-11.31,109.11.13,1.52,2.33,1.14,2.36-.29C146,574,146.11,536.07,155.91,501.5Z" fill="#0071f2" data-primary="true"/>
<path d="M155.91,501.5c-13.23,34.64-12.43,72.61-11.31,109.11.13,1.52,2.33,1.14,2.36-.29C146,574,146.11,536.07,155.91,501.5Z" opacity="0.3" style="isolation:isolate"/>
<path d="M135,565.36c-4.12,4.67-13.64,4.26-19.93-4.1s-10.14-39.69-1.23-37.68c1.9-4.19,26.58,5.86,29.73,26.33C145.85,564.78,135,565.36,135,565.36Z" fill="#0071f2" data-primary="true"/>
<path d="M135,565.36c-4.12,4.67-13.64,4.26-19.93-4.1s-10.14-39.69-1.23-37.68c1.9-4.19,26.58,5.86,29.73,26.33C145.85,564.78,135,565.36,135,565.36Z" fill="#fff" opacity="0.25" style="isolation:isolate"/>
<path d="M142.37,580.17c-3.4-17.86-12.58-36.25-23.79-49.56,12.25,16.28,18.6,35.85,23.91,55.29C143.53,587.18,142.28,580.88,142.37,580.17Z" fill="#0071f2" data-primary="true"/>
<path d="M142.37,580.17c-3.4-17.86-12.58-36.25-23.79-49.56,12.25,16.28,18.6,35.85,23.91,55.29C143.53,587.18,142.28,580.88,142.37,580.17Z" opacity="0.3" style="isolation:isolate"/>
<path d="M150.1,560.72c-5.41-1.23-5.67-7.72,1.08-15.68s23.75-11.43,24.56-8.08c3.79,0,3.79,11.84-4.55,22.74S150.6,568,150.1,560.72Z" fill="#0071f2" data-primary="true"/>
<path d="M150.1,560.72c-5.41-1.23-5.67-7.72,1.08-15.68s23.75-11.43,24.56-8.08c3.79,0,3.79,11.84-4.55,22.74S150.6,568,150.1,560.72Z" fill="#fff" opacity="0.25" style="isolation:isolate"/>
<path d="M160.67,549.14A42.82,42.82,0,0,0,145,569.25c-.17.47.62,1.14.81.64A51.19,51.19,0,0,1,160.67,549.14Z" fill="#0071f2" data-primary="true"/>
<path d="M160.67,549.14A42.82,42.82,0,0,0,145,569.25c-.17.47.62,1.14.81.64A51.19,51.19,0,0,1,160.67,549.14Z" opacity="0.3" style="isolation:isolate"/>
<path d="M156.25,600.23c-7.47,3-4.26,11.93,3,18.71,6.49,6.57,21.32,10.11,29,7.14C194.42,595.3,156.28,585.46,156.25,600.23Z" fill="#0071f2" data-primary="true"/>
<path d="M156.25,600.23c-7.47,3-4.26,11.93,3,18.71,6.49,6.57,21.32,10.11,29,7.14C194.42,595.3,156.28,585.46,156.25,600.23Z" fill="#fff" opacity="0.45" style="isolation:isolate"/>
<path d="M177,613.39c-6.53-7.29-15.76-16.88-26.5-14.07-2,.68-5.05,2.65-4.68,5.11,0,.24.47.85.77.5C155.08,592.78,170.08,606.38,177,613.39Z" fill="#0071f2" data-primary="true"/>
<path d="M177,613.39c-6.53-7.29-15.76-16.88-26.5-14.07-2,.68-5.05,2.65-4.68,5.11,0,.24.47.85.77.5C155.08,592.78,170.08,606.38,177,613.39Z" opacity="0.3" style="isolation:isolate"/>
<path d="M127.78,561.92c-.94-18.09-42.52-14.9-48.68-5.2-2.3,3-3.48,6.06-.71,6.86s12.37,1.72,18.66,4.55,19.07,11.46,27.81,8.92S132.12,565.31,127.78,561.92Z" fill="#0071f2" data-primary="true"/>
<path d="M127.78,561.92c-.94-18.09-42.52-14.9-48.68-5.2-2.3,3-3.48,6.06-.71,6.86s12.37,1.72,18.66,4.55,19.07,11.46,27.81,8.92S132.12,565.31,127.78,561.92Z" fill="#fff" opacity="0.45" style="isolation:isolate"/>
<path d="M139.44,573.8c-9.05-17.34-32.9-19.69-50.06-15.64v.15C107,555,129.64,559.22,139.44,573.8Z" fill="#0071f2" data-primary="true"/>
<path d="M139.44,573.8c-9.05-17.34-32.9-19.69-50.06-15.64v.15C107,555,129.64,559.22,139.44,573.8Z" opacity="0.3" style="isolation:isolate"/>
<path d="M163.52,544c-.2,5.36,7.35,8.47,14.64,3.83s15-9.09,21.74-10.9,10-7.26,7.84-9.94c-7.38-15-46.67-5.59-49.88,8.67C155.42,541.34,160.83,545.57,163.52,544Z" fill="#0071f2" data-primary="true"/>
<path d="M163.52,544c-.2,5.36,7.35,8.47,14.64,3.83s15-9.09,21.74-10.9,10-7.26,7.84-9.94c-7.38-15-46.67-5.59-49.88,8.67C155.42,541.34,160.83,545.57,163.52,544Z" fill="#fff" opacity="0.45" style="isolation:isolate"/>
<path d="M192.47,527c-11.85-.36-24,7-29.68,17.35-.12.36.39.94.7.57C169.62,534.9,181.18,528.07,192.47,527Z" fill="#0071f2" data-primary="true"/>
<path d="M192.47,527c-11.85-.36-24,7-29.68,17.35-.12.36.39.94.7.57C169.62,534.9,181.18,528.07,192.47,527Z" opacity="0.3" style="isolation:isolate"/>
<path d="M150.74,573c-2.49-2.49-9.27-1.91-12.47,5.46s3.52,15.43,4.28,17.7c3-1.78,5.49-.72,10.95-1.78C166.4,592.38,169.41,566.1,150.74,573Z" fill="#0071f2" data-primary="true"/>
<path d="M150.74,573c-2.49-2.49-9.27-1.91-12.47,5.46s3.52,15.43,4.28,17.7c3-1.78,5.49-.72,10.95-1.78C166.4,592.38,169.41,566.1,150.74,573Z" fill="#fff" opacity="0.45" style="isolation:isolate"/>
<path d="M150.65,572.29c-5,3.49-7.72,11.55-6.27,16.89a19.45,19.45,0,0,1,6.8-16.2C151.31,572.65,151,572,150.65,572.29Z" fill="#0071f2" data-primary="true"/>
<path d="M150.65,572.29c-5,3.49-7.72,11.55-6.27,16.89a19.45,19.45,0,0,1,6.8-16.2C151.31,572.65,151,572,150.65,572.29Z" opacity="0.3" style="isolation:isolate"/>
<path d="M139,587.9c-2.08-13.77-29.35-18.17-38.4-6-6.17,6.72-9.37,12.44-6.85,14,9.82,4.42,32.38,15,45.28,6.62C146.37,598.12,145.87,590.65,139,587.9Z" fill="#0071f2" data-primary="true"/>
<path d="M139,587.9c-2.08-13.77-29.35-18.17-38.4-6-6.17,6.72-9.37,12.44-6.85,14,9.82,4.42,32.38,15,45.28,6.62C146.37,598.12,145.87,590.65,139,587.9Z" fill="#fff" opacity="0.25" style="isolation:isolate"/>
<path d="M139.47,587.3c-11.83-5.43-25.78-1.86-37.19,3.09,11.38-3.26,25-7.32,37.12-2.34C140,588.31,139.81,587.45,139.47,587.3Z" fill="#0071f2" data-primary="true"/>
<path d="M139.47,587.3c-11.83-5.43-25.78-1.86-37.19,3.09,11.38-3.26,25-7.32,37.12-2.34C140,588.31,139.81,587.45,139.47,587.3Z" opacity="0.3" style="isolation:isolate"/>
<path d="M156.45,579.75c-18.5-24.21,57.32-18.92,52.73-5.23C221.73,594.21,147.52,598.6,156.45,579.75Z" fill="#0071f2" data-primary="true"/>
<path d="M156.45,579.75c-18.5-24.21,57.32-18.92,52.73-5.23C221.73,594.21,147.52,598.6,156.45,579.75Z" fill="#fff" opacity="0.25" style="isolation:isolate"/>
<path d="M199.24,574.59c-13-1.46-32.71-3.29-43.67,4.52.42,2.07,6.14-2.67,8-2.49,11.56-3,23.77-2.87,35.61-1.91C199.3,574.83,199.34,574.61,199.24,574.59Z" fill="#0071f2" data-primary="true"/>
<path d="M199.24,574.59c-13-1.46-32.71-3.29-43.67,4.52.42,2.07,6.14-2.67,8-2.49,11.56-3,23.77-2.87,35.61-1.91C199.3,574.83,199.34,574.61,199.24,574.59Z" opacity="0.3" style="isolation:isolate"/>
</svg>