<?xml version="1.0" standalone="no"?>
<!DOCTYPE svg PUBLIC "-//W3C//DTD SVG 20010904//EN"
 "http://www.w3.org/TR/2001/REC-SVG-20010904/DTD/svg10.dtd">
<svg version="1.0" xmlns="http://www.w3.org/2000/svg"
 width="512.000000pt" height="512.000000pt" viewBox="0 0 512.000000 512.000000"
 preserveAspectRatio="xMidYMid meet">

<g transform="translate(0.000000,512.000000) scale(0.100000,-0.100000)"
fill="#000000" stroke="none">
<path d="M1338 5016 c-89 -37 -150 -96 -191 -183 -21 -46 -22 -62 -25 -348 -2
-164 -1 -309 3 -322 7 -29 57 -55 90 -47 49 12 50 18 55 333 5 282 6 298 27
338 26 48 62 76 118 92 55 15 3353 16 3408 0 43 -12 101 -59 123 -100 12 -24
14 -266 14 -1751 0 -1074 4 -1736 10 -1757 18 -63 81 -81 126 -36 l24 24 -2
1763 -3 1763 -28 56 c-32 67 -109 142 -175 172 l-47 22 -1735 2 -1735 3 -57
-24z"/>
<path d="M1609 4441 l-29 -29 0 -432 0 -432 29 -29 29 -29 317 0 317 0 30 30
c24 25 29 36 23 58 -3 15 -15 36 -26 47 -18 19 -35 20 -289 23 l-270 3 0 329
0 330 1385 0 1385 0 0 -330 0 -330 -945 -2 -944 -3 -22 -22 c-32 -31 -30 -80
5 -110 l27 -23 990 0 990 0 24 25 25 24 0 435 c0 239 -3 442 -6 451 -18 47 34
45 -1539 45 l-1477 0 -29 -29z"/>
<path d="M1142 3897 l-22 -23 0 -531 0 -531 -422 -4 c-370 -4 -429 -6 -468
-21 -102 -39 -185 -128 -215 -231 -23 -77 -22 -1874 1 -1979 27 -123 76 -211
173 -307 98 -98 170 -140 287 -170 76 -20 118 -20 2083 -20 2224 0 2064 -4
2209 67 85 42 193 138 248 220 21 31 51 96 68 143 29 82 30 92 34 295 4 203 3
211 -18 238 -28 35 -87 38 -116 6 -17 -19 -20 -43 -25 -238 -6 -229 -10 -254
-64 -345 -35 -59 -130 -148 -194 -181 -113 -57 -37 -55 -1914 -55 l-1729 0 44
50 c57 64 104 144 137 228 l26 67 3 1652 c2 1645 2 1653 -18 1673 -28 28 -81
26 -108 -3z m-22 -2234 c0 -1084 1 -1051 -61 -1175 -87 -173 -299 -280 -493
-249 -182 29 -333 158 -386 330 -19 61 -20 97 -20 1002 0 916 0 941 20 979 20
38 57 72 101 89 14 6 201 10 432 10 l407 1 0 -987z"/>
<path d="M1622 3113 c-7 -3 -19 -18 -27 -33 -13 -24 -15 -103 -15 -495 0 -491
2 -512 45 -529 9 -3 261 -6 559 -6 l543 0 21 23 c22 23 22 24 22 514 l0 492
-26 20 c-26 21 -35 21 -568 20 -297 0 -547 -3 -554 -6z m993 -528 l0 -380
-437 -3 -438 -2 0 385 0 385 438 -2 437 -3 0 -380z"/>
<path d="M3198 3074 c-51 -27 -45 -108 8 -133 36 -16 1377 -16 1407 1 49 26
61 78 28 119 l-19 24 -699 2 c-604 2 -702 0 -725 -13z"/>
<path d="M3185 2635 c-30 -30 -32 -64 -4 -99 l20 -26 709 0 709 0 20 26 c28
35 26 69 -4 99 l-24 25 -701 0 -701 0 -24 -25z"/>
<path d="M3181 2204 c-28 -35 -26 -69 4 -99 l24 -25 701 0 701 0 24 25 c30 30
32 64 4 99 l-20 26 -709 0 -709 0 -20 -26z"/>
<path d="M3524 1720 c-55 -22 -54 -15 -54 -533 l0 -479 29 -29 29 -29 532 0
c545 0 558 1 587 39 9 12 12 135 13 498 l0 482 -24 28 -24 28 -534 2 c-293 1
-543 -2 -554 -7z m976 -530 l0 -380 -435 0 -435 0 0 380 0 380 435 0 435 0 0
-380z"/>
<path d="M1613 1675 c-11 -8 -24 -26 -27 -40 -7 -29 15 -79 39 -89 9 -3 330
-6 714 -6 l698 0 21 23 c29 31 29 77 -1 105 l-23 22 -700 0 c-601 0 -703 -2
-721 -15z"/>
<path d="M1635 1261 c-27 -11 -42 -30 -50 -63 -6 -22 -1 -33 23 -58 l30 -30
697 0 696 0 24 25 c30 29 32 74 6 106 l-19 24 -694 2 c-381 1 -702 -2 -713 -6z"/>
<path d="M1619 827 c-43 -33 -46 -89 -7 -124 19 -17 58 -18 692 -21 369 -2
686 0 704 3 72 13 99 93 46 134 -26 21 -33 21 -723 21 -531 -1 -700 -4 -712
-13z"/>
</g>
</svg>
