<?xml version="1.0" encoding="utf-8"?>
<svg xmlns="http://www.w3.org/2000/svg" xmlns:xlink="http://www.w3.org/1999/xlink" style="margin: auto; background: none; display: block; shape-rendering: auto;" width="197px" height="197px" viewBox="0 0 100 100" preserveAspectRatio="xMidYMid">
<g transform="rotate(0 50 50)">
  <rect x="47.5" y="29" rx="2.5" ry="2" width="5" height="4" fill="#93dbe9">
    <animate attributeName="opacity" values="1;0" keyTimes="0;1" dur="0.4081632653061225s" begin="-0.37676609105180536s" repeatCount="indefinite"></animate>
  </rect>
</g><g transform="rotate(27.692307692307693 50 50)">
  <rect x="47.5" y="29" rx="2.5" ry="2" width="5" height="4" fill="#93dbe9">
    <animate attributeName="opacity" values="1;0" keyTimes="0;1" dur="0.4081632653061225s" begin="-0.34536891679748827s" repeatCount="indefinite"></animate>
  </rect>
</g><g transform="rotate(55.38461538461539 50 50)">
  <rect x="47.5" y="29" rx="2.5" ry="2" width="5" height="4" fill="#93dbe9">
    <animate attributeName="opacity" values="1;0" keyTimes="0;1" dur="0.4081632653061225s" begin="-0.3139717425431711s" repeatCount="indefinite"></animate>
  </rect>
</g><g transform="rotate(83.07692307692308 50 50)">
  <rect x="47.5" y="29" rx="2.5" ry="2" width="5" height="4" fill="#93dbe9">
    <animate attributeName="opacity" values="1;0" keyTimes="0;1" dur="0.4081632653061225s" begin="-0.282574568288854s" repeatCount="indefinite"></animate>
  </rect>
</g><g transform="rotate(110.76923076923077 50 50)">
  <rect x="47.5" y="29" rx="2.5" ry="2" width="5" height="4" fill="#93dbe9">
    <animate attributeName="opacity" values="1;0" keyTimes="0;1" dur="0.4081632653061225s" begin="-0.2511773940345369s" repeatCount="indefinite"></animate>
  </rect>
</g><g transform="rotate(138.46153846153845 50 50)">
  <rect x="47.5" y="29" rx="2.5" ry="2" width="5" height="4" fill="#93dbe9">
    <animate attributeName="opacity" values="1;0" keyTimes="0;1" dur="0.4081632653061225s" begin="-0.2197802197802198s" repeatCount="indefinite"></animate>
  </rect>
</g><g transform="rotate(166.15384615384616 50 50)">
  <rect x="47.5" y="29" rx="2.5" ry="2" width="5" height="4" fill="#93dbe9">
    <animate attributeName="opacity" values="1;0" keyTimes="0;1" dur="0.4081632653061225s" begin="-0.18838304552590268s" repeatCount="indefinite"></animate>
  </rect>
</g><g transform="rotate(193.84615384615384 50 50)">
  <rect x="47.5" y="29" rx="2.5" ry="2" width="5" height="4" fill="#93dbe9">
    <animate attributeName="opacity" values="1;0" keyTimes="0;1" dur="0.4081632653061225s" begin="-0.15698587127158556s" repeatCount="indefinite"></animate>
  </rect>
</g><g transform="rotate(221.53846153846155 50 50)">
  <rect x="47.5" y="29" rx="2.5" ry="2" width="5" height="4" fill="#93dbe9">
    <animate attributeName="opacity" values="1;0" keyTimes="0;1" dur="0.4081632653061225s" begin="-0.12558869701726846s" repeatCount="indefinite"></animate>
  </rect>
</g><g transform="rotate(249.23076923076923 50 50)">
  <rect x="47.5" y="29" rx="2.5" ry="2" width="5" height="4" fill="#93dbe9">
    <animate attributeName="opacity" values="1;0" keyTimes="0;1" dur="0.4081632653061225s" begin="-0.09419152276295134s" repeatCount="indefinite"></animate>
  </rect>
</g><g transform="rotate(276.9230769230769 50 50)">
  <rect x="47.5" y="29" rx="2.5" ry="2" width="5" height="4" fill="#93dbe9">
    <animate attributeName="opacity" values="1;0" keyTimes="0;1" dur="0.4081632653061225s" begin="-0.06279434850863423s" repeatCount="indefinite"></animate>
  </rect>
</g><g transform="rotate(304.61538461538464 50 50)">
  <rect x="47.5" y="29" rx="2.5" ry="2" width="5" height="4" fill="#93dbe9">
    <animate attributeName="opacity" values="1;0" keyTimes="0;1" dur="0.4081632653061225s" begin="-0.031397174254317116s" repeatCount="indefinite"></animate>
  </rect>
</g><g transform="rotate(332.3076923076923 50 50)">
  <rect x="47.5" y="29" rx="2.5" ry="2" width="5" height="4" fill="#93dbe9">
    <animate attributeName="opacity" values="1;0" keyTimes="0;1" dur="0.4081632653061225s" begin="0s" repeatCount="indefinite"></animate>
  </rect>
</g>
<!-- [ldio] generated by https://loading.io/ --></svg>