<?xml version="1.0" standalone="no"?>
<!DOCTYPE svg PUBLIC "-//W3C//DTD SVG 20010904//EN"
 "http://www.w3.org/TR/2001/REC-SVG-20010904/DTD/svg10.dtd">
<svg version="1.0" xmlns="http://www.w3.org/2000/svg"
 width="512.000000pt" height="512.000000pt" viewBox="0 0 512.000000 512.000000"
 preserveAspectRatio="xMidYMid meet">

<g transform="translate(0.000000,512.000000) scale(0.100000,-0.100000)"
fill="" stroke="none">
<path d="M4347 4790 c-20 -5 -56 -19 -80 -31 -37 -19 -1272 -1233 -1903 -1871
l-182 -183 -116 -323 c-64 -178 -116 -336 -116 -353 0 -38 32 -69 72 -69 18 0
180 53 360 117 l329 117 1005 997 c553 548 1019 1016 1035 1040 71 106 79 255
19 368 -61 115 -180 189 -312 196 -40 3 -90 0 -111 -5z m166 -163 c111 -47
165 -170 122 -275 -9 -20 -44 -65 -78 -100 l-62 -62 -147 147 -148 148 58 58
c31 33 75 68 97 78 47 22 113 24 158 6z m-280 -405 l147 -148 -844 -837 -844
-837 -27 46 c-38 65 -154 184 -214 219 -28 17 -50 33 -48 36 2 7 1675 1669
1680 1669 1 0 69 -67 150 -148z m-1846 -1706 c60 -44 112 -101 151 -167 l22
-37 -27 -11 c-36 -14 -365 -131 -369 -131 -3 0 26 83 106 303 18 48 38 87 45
87 7 0 40 -20 72 -44z"/>
<path d="M731 4269 c-140 -18 -302 -132 -365 -257 -59 -116 -56 -27 -56 -1717
0 -1634 -1 -1583 43 -1686 39 -89 134 -186 229 -235 110 -56 44 -54 1714 -54
984 0 1561 4 1595 10 130 24 271 125 337 241 65 115 62 37 62 1507 0 834 -4
1340 -10 1351 -5 10 -23 24 -39 31 -37 15 -79 -2 -98 -40 -10 -20 -13 -301
-13 -1347 0 -1309 0 -1323 -21 -1377 -26 -72 -93 -145 -166 -181 l-58 -30
-1580 0 -1580 0 -56 26 c-76 36 -133 90 -166 157 l-28 57 0 1575 0 1575 27 52
c53 101 143 165 254 183 36 6 576 10 1360 10 1299 0 1301 0 1319 20 26 29 25
85 -3 113 l-23 22 -1307 1 c-719 1 -1336 -2 -1371 -7z"/>
</g>
</svg>
