<?xml version="1.0" standalone="no"?>
<!DOCTYPE svg PUBLIC "-//W3C//DTD SVG 20010904//EN"
 "http://www.w3.org/TR/2001/REC-SVG-20010904/DTD/svg10.dtd">
<svg version="1.0" xmlns="http://www.w3.org/2000/svg"
 width="2048.000000pt" height="2048.000000pt" viewBox="0 0 2048.000000 2048.000000"
 preserveAspectRatio="xMidYMid meet">

<g transform="translate(0.000000,2048.000000) scale(0.100000,-0.100000)"
fill="#000000" stroke="none">
<path d="M9912 19875 c-1159 -133 -2124 -980 -2412 -2115 -47 -186 -90 -500
-90 -664 0 -28 -2 -27 -72 40 -402 381 -930 636 -1513 729 -139 23 -521 31
-682 15 -367 -35 -680 -127 -1018 -299 -648 -329 -1145 -901 -1386 -1596 -71
-205 -119 -428 -140 -649 -15 -163 -7 -534 16 -676 90 -577 343 -1107 718
-1506 l77 -82 -112 -6 c-428 -26 -778 -116 -1143 -296 -276 -136 -514 -308
-740 -535 -437 -436 -708 -975 -800 -1590 -34 -227 -36 -489 -32 -4035 l3
-3505 21 -125 c59 -348 133 -581 274 -867 421 -854 1250 -1419 2229 -1518 139
-14 861 -15 7200 -13 6674 3 7051 4 7160 21 451 69 848 218 1189 444 715 475
1159 1240 1231 2118 8 103 10 1093 8 3705 -5 3877 -1 3632 -58 3917 -158 789
-641 1475 -1327 1882 -408 242 -827 367 -1330 397 l-113 6 81 87 c332 353 582
842 683 1331 68 332 76 733 20 1055 -50 286 -135 539 -273 810 -380 748 -1083
1292 -1906 1474 -214 47 -307 56 -605 56 -226 0 -309 -4 -400 -18 -590 -93
-1115 -342 -1517 -721 -80 -75 -83 -77 -83 -50 0 77 -23 313 -40 424 -124 770
-568 1460 -1220 1897 -382 257 -827 416 -1289 463 -138 13 -469 11 -609 -5z
m668 -1318 c275 -66 510 -192 707 -381 144 -137 234 -259 321 -432 108 -216
156 -422 156 -674 0 -194 -18 -309 -74 -480 -65 -198 -161 -367 -299 -528
l-71 -82 0 -1567 0 -1568 1109 1109 1108 1108 6 105 c38 614 453 1153 1038
1347 195 65 389 89 594 76 534 -36 1011 -353 1254 -833 126 -247 181 -522 160
-802 -55 -760 -665 -1365 -1422 -1412 l-105 -6 -1108 -1108 -1109 -1109 1568
0 1567 0 82 71 c557 481 1368 504 1942 55 340 -266 560 -677 583 -1088 l6
-118 -8354 0 -8354 0 7 112 c22 347 169 681 412 935 232 243 499 389 830 455
145 29 392 31 541 4 274 -49 531 -172 743 -355 l82 -71 1567 0 1568 0 -1109
1109 -1108 1108 -105 6 c-614 38 -1153 453 -1347 1037 -180 542 -52 1124 339
1538 427 453 1092 598 1676 367 543 -215 920 -735 956 -1318 l6 -105 1108
-1108 1109 -1109 0 1568 0 1567 -71 82 c-138 161 -234 330 -299 528 -56 170
-74 286 -74 480 0 180 20 313 70 467 173 532 631 933 1181 1033 160 29 464 22
613 -13z m-5056 -8882 c565 -66 1060 -299 1464 -690 454 -438 732 -1044 759
-1657 l6 -138 -731 0 -732 0 -4 23 c-3 12 -7 54 -10 92 -19 247 -168 519 -375
687 -98 79 -248 157 -376 195 -82 24 -105 27 -270 27 -158 1 -190 -2 -265 -22
-94 -26 -243 -93 -317 -143 -181 -122 -321 -300 -394 -500 -50 -137 -62 -209
-62 -369 0 -177 26 -290 102 -445 59 -121 122 -206 225 -303 192 -182 314
-224 906 -307 276 -39 591 -122 816 -216 311 -129 536 -279 759 -503 410 -412
656 -935 716 -1520 15 -148 7 -472 -16 -611 -171 -1075 -989 -1910 -2052
-2095 -551 -96 -1118 -2 -1618 269 -759 410 -1268 1214 -1302 2054 l-6 147
730 0 731 0 7 -83 c31 -359 254 -690 569 -845 305 -150 638 -149 938 5 270
138 472 396 538 689 35 155 31 351 -10 505 -30 108 -119 281 -193 374 -176
220 -393 317 -902 404 -507 87 -848 189 -1158 348 -342 175 -602 413 -837 766
-190 284 -319 610 -380 958 -28 155 -39 521 -21 680 64 563 301 1070 686 1468
422 436 954 697 1553 760 130 14 390 12 526 -4z m3699 -5 c3 -11 236 -1134
518 -2496 349 -1683 516 -2468 521 -2452 7 21 1028 4952 1028 4963 0 3 331 5
735 5 l735 0 -5 -22 c-3 -13 -140 -675 -305 -1473 -166 -797 -404 -1949 -531
-2560 -126 -610 -313 -1510 -414 -2000 -101 -490 -258 -1248 -350 -1687 -91
-438 -165 -799 -165 -802 0 -3 -331 -6 -735 -6 -404 0 -735 3 -735 8 0 4 -54
268 -120 587 -67 319 -215 1037 -331 1595 -115 558 -318 1537 -450 2175 -132
638 -379 1833 -550 2655 -170 822 -311 1503 -313 1513 -4 16 36 17 729 17 723
0 733 0 738 -20z m6283 9 c841 -81 1586 -587 1979 -1342 157 -302 250 -631
274 -978 6 -79 11 -150 11 -156 0 -10 -153 -13 -734 -13 l-733 0 -7 79 c-38
458 -375 840 -821 932 -120 25 -300 25 -420 0 -210 -43 -367 -130 -525 -290
-118 -120 -183 -218 -236 -360 -68 -180 -65 -63 -61 -2176 l3 -1910 23 -80
c85 -298 285 -539 555 -670 556 -271 1235 15 1429 602 19 59 40 143 46 186 7
48 11 293 11 628 l0 549 -520 0 -520 0 0 735 0 735 1255 0 1255 0 0 -1272 c0
-762 -4 -1327 -10 -1408 -25 -335 -103 -622 -251 -926 -110 -227 -262 -443
-448 -637 -640 -667 -1600 -921 -2499 -662 -653 187 -1216 655 -1527 1267
-134 262 -212 512 -257 823 -10 72 -13 501 -13 2090 0 1874 1 2007 18 2115 86
553 327 1031 711 1415 131 130 225 208 373 308 342 231 736 374 1148 416 119
12 367 12 491 0z"/>
</g>
</svg>
