<?xml version="1.0" standalone="no"?>
<!DOCTYPE svg PUBLIC "-//W3C//DTD SVG 20010904//EN"
 "http://www.w3.org/TR/2001/REC-SVG-20010904/DTD/svg10.dtd">
<svg version="1.0" xmlns="http://www.w3.org/2000/svg"
 width="1278.000000pt" height="1280.000000pt" viewBox="0 0 1278.000000 1280.000000"
 preserveAspectRatio="xMidYMid meet">

<g transform="translate(0.000000,1280.000000) scale(0.100000,-0.100000)"
fill="#000000" stroke="none">
<path d="M6560 8550 c-122 -7 -253 -28 -385 -61 -94 -24 -199 -60 -203 -70 -2
-5 -10 -5 -18 -2 -8 3 -14 0 -14 -5 0 -6 8 -13 18 -15 9 -3 -1 -5 -22 -6 -52
-1 -41 -11 20 -17 60 -6 69 -14 18 -15 l-39 -2 40 -7 c31 -5 34 -8 15 -10 -19
-2 -16 -5 15 -10 l40 -7 -37 -2 c-37 -1 -56 -18 -20 -18 9 0 31 -1 47 -3 l30
-2 -30 -8 c-29 -7 -29 -8 10 -10 35 -2 37 -3 15 -10 l-25 -7 30 -5 c24 -4 22
-5 -14 -7 -63 -2 -40 -15 39 -22 18 -1 14 -4 -15 -9 l-40 -7 38 -2 c20 0 37
-5 37 -11 0 -5 8 -11 18 -11 9 -1 1 -5 -18 -9 l-35 -7 45 -8 c44 -9 44 -9 15
-16 -29 -6 -28 -7 10 -9 31 -1 36 -3 20 -10 -18 -7 -16 -8 10 -12 24 -4 22 -5
-13 -7 -26 0 -41 -5 -37 -11 4 -6 10 -8 16 -5 5 3 26 3 46 -2 l38 -7 -40 -7
-40 -6 43 -2 c24 0 41 -5 37 -10 -3 -5 3 -12 12 -14 10 -3 4 -5 -14 -6 -33 -1
-56 -18 -25 -18 9 0 33 -1 52 -3 l35 -3 -35 -7 -35 -7 40 -3 c35 -2 37 -3 15
-10 -25 -8 -25 -8 5 -10 22 -2 25 -4 10 -7 -28 -7 -40 -21 -18 -20 46 0 58 -5
28 -13 -29 -7 -29 -8 10 -9 27 -1 36 -4 26 -10 -11 -7 -10 -10 5 -14 11 -3 5
-5 -16 -7 -29 -1 -32 -3 -15 -10 11 -5 36 -10 55 -11 l35 -2 -40 -7 -40 -7 40
-2 c32 -2 36 -4 20 -11 -17 -7 -16 -9 10 -10 l30 -2 -30 -8 c-29 -7 -29 -7 15
-16 44 -8 44 -8 15 -15 l-30 -7 28 -1 c16 0 26 -5 22 -10 -3 -5 3 -12 12 -14
10 -3 3 -5 -15 -6 -18 0 -31 -5 -27 -11 3 -5 11 -7 18 -5 7 2 28 0 47 -4 l35
-9 -40 -2 -40 -3 40 -7 c31 -5 34 -8 15 -10 -19 -2 -16 -5 15 -10 38 -7 38 -7
8 -9 -36 -1 -53 -17 -20 -18 12 0 96 -6 187 -12 349 -23 507 -76 787 -262 192
-127 282 -150 434 -111 89 24 172 76 227 142 60 73 90 141 104 236 14 97 -4
192 -52 275 -41 70 -68 98 -160 169 -413 316 -923 470 -1450 440z"/>
<path d="M5183 7118 c-213 -201 -382 -449 -491 -723 -41 -102 -112 -366 -112
-414 0 -15 16 -82 35 -149 210 -727 762 -1293 1467 -1500 238 -71 353 -86 653
-86 l260 -1 64 34 c94 49 171 126 212 214 l34 72 3 228 3 227 -23 1 c-13 0
-17 3 -10 6 22 9 13 23 -15 23 -22 0 -25 2 -13 10 12 8 10 10 -10 11 l-25 1
25 8 c22 7 20 8 -15 10 -22 1 -32 4 -22 7 9 2 17 11 17 18 0 9 -6 12 -17 8
-11 -4 -14 -3 -9 5 5 9 -64 12 -283 12 -200 0 -325 5 -405 15 -318 42 -619
224 -823 500 -101 135 -193 343 -223 504 -28 147 -30 360 -4 449 6 20 3 22
-32 23 -22 1 -30 3 -19 6 43 11 38 23 -10 23 -36 0 -46 3 -35 10 13 9 13 10 0
10 -13 0 -13 1 0 10 12 8 9 10 -12 10 -20 0 -26 4 -22 15 5 11 -1 15 -22 15
-23 0 -26 2 -14 10 12 8 8 10 -15 11 l-30 1 30 8 c29 7 29 8 -10 10 -22 1 -32
4 -22 7 31 8 18 23 -20 24 -34 1 -35 2 -13 9 25 8 25 8 -5 10 l-30 2 30 8 c26
7 24 8 -19 9 -41 1 -47 3 -37 15 10 11 8 15 -6 19 -17 4 -17 5 0 6 10 0 15 5
12 11 -8 13 18 49 124 173 45 52 50 67 24 67 -9 0 -14 3 -10 6 9 9 -19 34 -38
34 -9 0 -41 -24 -72 -52z m264 -504 c-3 -3 -12 -4 -19 -1 -8 3 -5 6 6 6 11 1
17 -2 13 -5z"/>
<path d="M7701 6049 c-126 -22 -256 -118 -317 -235 -40 -75 -64 -181 -64 -283
l0 -81 28 -1 c24 0 25 -1 7 -9 -17 -7 -16 -9 10 -9 23 -1 27 -4 15 -11 -12 -8
-8 -10 15 -11 l30 -1 -30 -8 -30 -8 30 -1 c17 -1 41 -4 54 -8 23 -6 23 -7 5
-14 -14 -6 -8 -8 21 -8 30 -1 36 -4 25 -11 -12 -8 -8 -10 15 -11 29 -1 30 -1
5 -9 -14 -4 -20 -9 -15 -10 17 -4 38 -6 70 -9 l30 -3 -30 -8 c-29 -7 -30 -8
-4 -9 15 0 39 -7 54 -15 23 -12 24 -15 8 -19 -11 -2 0 -7 27 -12 35 -7 40 -10
25 -16 -17 -6 -16 -8 8 -8 15 -1 27 -5 27 -11 0 -5 10 -10 23 -11 21 -1 21 -1
-3 -8 -21 -6 -16 -9 30 -16 42 -6 50 -10 35 -16 -17 -7 -16 -8 8 -8 16 -1 26
-5 22 -11 -4 -6 6 -11 22 -11 l28 -1 -30 -8 c-22 -6 -25 -8 -10 -10 11 -1 25
-3 30 -5 6 -1 21 -3 35 -4 23 -2 24 -3 5 -11 -17 -7 -14 -9 13 -9 19 -1 31 -5
27 -11 -4 -6 6 -11 22 -11 l28 -1 -30 -8 c-18 -5 -23 -9 -12 -10 9 -1 22 -4
27 -5 6 -1 22 -4 38 -5 l27 -2 -30 -8 c-30 -8 -30 -8 8 -9 20 0 37 -5 37 -11
0 -5 8 -10 18 -11 14 0 14 -2 -3 -8 -16 -7 -9 -10 30 -17 43 -6 46 -9 25 -15
l-25 -7 28 -1 c20 -1 26 -5 21 -13 -5 -8 0 -7 11 2 11 9 16 10 11 3 -4 -7 -3
-13 2 -13 22 0 36 172 36 465 1 337 -1 351 -74 464 -93 143 -284 228 -449 200z"/>
</g>
</svg>
