<svg xmlns="http://www.w3.org/2000/svg" width="40" height="33" viewBox="0 0 40 33">
  <path fill="#0AF" d="M10.4570779,4.75 L11.3025679,2.51449367 C11.8381595,1.09723582 13.4280152,0 14.936,0 L25.064,0 C26.579257,0 28.1578574,1.09474444 28.6953385,2.51424602 L29.5409221,4.75 L36.997,4.75 C38.651993,4.75 40,6.09242904 40,7.74 L40,29.41 C40,31.0603785 38.6492228,32.4 36.997,32.4 L3.003,32.4 C1.34854412,32.4 0,31.056106 0,29.41 L0,7.74 C0,6.08962148 1.35077725,4.75 3.003,4.75 L10.4570779,4.75 Z M3.003,6.75 C2.45165093,6.75 2,7.19792085 2,7.74 L2,29.41 C2,29.9499871 2.45157007,30.4 3.003,30.4 L36.997,30.4 C37.5483491,30.4 38,29.9520792 38,29.41 L38,7.74 C38,7.19885924 37.5492757,6.75 36.997,6.75 L28.1590779,6.75 L27.9146615,6.10375398 L26.824795,3.22210675 C26.5812951,2.57901742 25.7463631,2 25.064,2 L14.936,2 C14.2593191,2 13.4147829,2.58285495 13.1733385,3.22175398 L11.8389221,6.75 L3.003,6.75 Z M4,2 L7,2 C7.55228475,2 8,2.44771525 8,3 C8,3.55228475 7.55228475,4 7,4 L4,4 C3.44771525,4 3,3.55228475 3,3 C3,2.44771525 3.44771525,2 4,2 Z M20,27 C15.0294373,27 11,22.9705627 11,18 C11,13.0294373 15.0294373,9 20,9 C24.9705627,9 29,13.0294373 29,18 C29,22.9705627 24.9705627,27 20,27 Z M21,17 L21,13.995 C21,13.455 20.552,13 20,13 C19.444,13 19,13.446 19,13.995 L19,17 L15.995,17 C15.455,17 15,17.448 15,18 C15,18.556 15.446,19 15.995,19 L19,19 L19,22.005 C19,22.545 19.448,23 20,23 C20.556,23 21,22.554 21,22.005 L21,19 L24.005,19 C24.545,19 25,18.552 25,18 C25,17.444 24.554,17 24.005,17 L21,17 Z"/>
</svg>
