<?xml version="1.0" standalone="no"?>
<!DOCTYPE svg PUBLIC "-//W3C//DTD SVG 20010904//EN"
 "http://www.w3.org/TR/2001/REC-SVG-20010904/DTD/svg10.dtd">
<svg version="1.0" xmlns="http://www.w3.org/2000/svg"
 width="512.000000pt" height="512.000000pt" viewBox="0 0 512.000000 512.000000"
 preserveAspectRatio="xMidYMid meet">

<g transform="translate(0.000000,512.000000) scale(0.100000,-0.100000)"
fill="#000000" stroke="none">
<path d="M2100 4951 c-45 -14 -86 -39 -119 -73 -61 -61 -66 -78 -71 -253 l-5
-160 -441 -5 -441 -5 -35 -27 c-62 -48 -68 -72 -68 -290 0 -182 2 -195 23
-233 24 -42 86 -85 124 -85 15 0 24 -7 27 -22 3 -13 66 -736 141 -1608 75
-872 140 -1625 146 -1675 17 -156 82 -256 208 -318 l66 -32 905 0 905 0 66 32
c126 62 191 162 208 318 6 50 71 803 146 1675 75 872 138 1595 141 1608 3 15
12 22 27 22 38 0 100 43 124 85 21 38 23 51 23 233 0 218 -6 242 -68 290 l-35
27 -441 5 -441 5 -5 160 c-3 107 -9 168 -18 183 -25 43 -85 103 -126 125 -40
22 -50 22 -491 24 -247 1 -461 -2 -475 -6z m900 -166 c16 -8 34 -24 40 -34 5
-11 10 -81 10 -155 l0 -136 -490 0 -490 0 0 136 c0 74 5 144 10 154 26 48 39
49 478 50 349 0 417 -2 442 -15z m1040 -645 l0 -160 -1480 0 -1480 0 0 160 0
160 1480 0 1480 0 0 -160z m-180 -356 c0 -19 -58 -711 -130 -1536 -71 -825
-130 -1511 -130 -1524 l0 -24 -1040 0 -1040 0 0 23 c0 13 -58 699 -130 1525
-71 826 -130 1517 -130 1537 l0 35 1300 0 1300 0 0 -36z m-280 -3269 c0 -65
-56 -144 -125 -176 -38 -18 -84 -19 -895 -19 -811 0 -857 1 -895 19 -69 32
-125 111 -125 176 l0 25 1020 0 1020 0 0 -25z"/>
<path d="M1689 3571 c-27 -28 -29 -34 -24 -83 3 -29 51 -600 105 -1268 l99
-1215 26 -22 c34 -30 67 -29 102 1 25 22 28 30 25 83 -1 32 -47 605 -102 1273
l-99 1215 -26 23 c-36 30 -71 28 -106 -7z"/>
<path d="M2513 3576 l-28 -24 0 -1272 0 -1272 28 -24 c34 -29 66 -31 101 -3
l26 20 0 1279 0 1279 -26 20 c-35 28 -67 26 -101 -3z"/>
<path d="M3325 3578 l-26 -23 -99 -1215 c-55 -668 -101 -1241 -102 -1273 -3
-53 0 -61 25 -83 35 -30 68 -31 102 -1 l26 22 100 1215 c54 668 100 1241 102
1273 2 53 -1 61 -26 83 -35 30 -68 31 -102 2z"/>
</g>
</svg>
