<?xml version="1.0" standalone="no"?>
<!DOCTYPE svg PUBLIC "-//W3C//DTD SVG 20010904//EN"
 "http://www.w3.org/TR/2001/REC-SVG-20010904/DTD/svg10.dtd">
<svg version="1.0" xmlns="http://www.w3.org/2000/svg"
 width="512.000000pt" height="512.000000pt" viewBox="0 0 512.000000 512.000000"
 preserveAspectRatio="xMidYMid meet">

<g transform="translate(0.000000,512.000000) scale(0.100000,-0.100000)"
fill="#000000" stroke="none">
<path d="M2453 4732 c-226 -200 -480 -509 -663 -807 -298 -485 -478 -1077
-480 -1575 l0 -75 -71 -80 c-321 -366 -531 -963 -533 -1520 -1 -123 1 -145 20
-180 32 -61 84 -87 164 -82 55 4 127 28 454 156 214 83 392 151 395 151 4 0
18 -19 31 -42 72 -131 187 -302 218 -326 l35 -27 537 0 537 0 35 27 c31 24
146 195 218 326 13 23 27 42 31 42 5 0 187 -70 405 -155 316 -124 406 -155
445 -155 84 0 133 30 171 105 19 37 20 51 15 186 -26 593 -219 1132 -535 1493
l-69 79 -7 146 c-13 295 -101 736 -157 792 -27 27 -80 25 -108 -5 -29 -31 -27
-52 22 -237 63 -239 81 -387 81 -674 0 -206 -4 -274 -22 -390 -39 -251 -117
-527 -209 -742 l-35 -83 -520 0 -519 0 -24 -25 c-14 -13 -25 -33 -25 -44 0
-29 20 -69 39 -78 9 -4 231 -10 494 -13 l477 -5 -74 -132 c-42 -73 -100 -170
-130 -217 l-56 -86 -480 0 -480 0 -56 86 c-30 47 -88 144 -130 217 l-74 132
131 5 c129 5 131 5 156 34 19 23 24 36 19 60 -12 61 -29 66 -216 66 l-168 0
-45 103 c-93 212 -161 448 -199 692 -32 202 -31 577 0 782 109 703 480 1406
1000 1898 l64 60 126 -130 c271 -279 471 -560 653 -920 95 -188 113 -208 170
-185 68 29 65 70 -19 244 -194 400 -503 818 -812 1095 -116 104 -123 105 -227
13z m-1118 -2813 c45 -323 130 -613 267 -917 33 -73 59 -135 57 -137 -10 -9
-755 -295 -770 -295 -24 0 -28 60 -18 245 23 403 147 778 369 1114 41 61 75
109 77 108 1 -2 10 -55 18 -118z m2581 -45 c113 -179 216 -421 269 -634 37
-145 54 -259 64 -419 10 -169 5 -251 -16 -251 -20 0 -757 282 -772 296 -2 2
24 63 57 136 143 315 227 618 277 991 l7 49 28 -39 c16 -22 55 -80 86 -129z"/>
<path d="M2525 3699 c-17 -9 -184 -208 -452 -540 -75 -92 -87 -125 -60 -160
23 -30 56 -39 141 -39 l86 0 0 -448 0 -449 26 -24 26 -24 268 0 268 0 26 24
c26 24 26 25 26 186 0 125 -3 165 -15 182 -31 44 -111 37 -134 -13 -6 -14 -11
-70 -11 -124 l0 -100 -160 0 -160 0 0 449 c0 520 5 492 -94 501 l-55 5 152
187 c84 103 154 187 157 187 3 0 73 -84 157 -187 l152 -187 -55 -5 c-92 -9
-94 -14 -94 -251 0 -126 4 -207 11 -223 23 -50 103 -57 134 -13 12 17 15 56
15 174 l0 153 85 0 c99 0 141 16 151 57 4 14 3 37 -2 50 -13 36 -495 620 -522
632 -27 13 -40 13 -67 0z"/>
</g>
</svg>
